<?xml version="1.0" encoding="utf-8"?>
<!-- Generator: Adobe Illustrator 25.2.1, SVG Export Plug-In . SVG Version: 6.00 Build 0)  -->
<svg version="1.1" id="Layer_3" xmlns="http://www.w3.org/2000/svg" xmlns:xlink="http://www.w3.org/1999/xlink" x="0px" y="0px"
	 viewBox="0 0 367.8 5.1" style="enable-background:new 0 0 367.8 5.1;" xml:space="preserve">
<style type="text/css">
	.st0{fill:#231F20;}
</style>
<rect y="2.2" class="st0" width="1.3" height="0.5"/>
<rect x="2" y="2.2" class="st0" width="1.3" height="0.5"/>
<rect x="3.9" y="2.2" class="st0" width="1.3" height="0.5"/>
<rect x="5.8" y="2.2" class="st0" width="1.3" height="0.5"/>
<rect x="7.8" y="2.2" class="st0" width="1.3" height="0.5"/>
<rect x="9.8" y="2.2" class="st0" width="1.3" height="0.5"/>
<rect x="11.7" y="2.2" class="st0" width="1.3" height="0.5"/>
<rect x="13.6" y="2.2" class="st0" width="1.3" height="0.5"/>
<rect x="15.6" y="2.2" class="st0" width="1.3" height="0.5"/>
<rect x="17.5" y="2.2" class="st0" width="1.3" height="0.5"/>
<rect x="19.5" y="2.2" class="st0" width="1.3" height="0.5"/>
<rect x="21.4" y="2.2" class="st0" width="1.3" height="0.5"/>
<rect x="23.4" y="2.2" class="st0" width="1.3" height="0.5"/>
<rect x="25.3" y="2.2" class="st0" width="1.3" height="0.5"/>
<rect x="27.3" y="2.2" class="st0" width="1.3" height="0.5"/>
<rect x="29.2" y="2.2" class="st0" width="1.3" height="0.5"/>
<rect x="31.2" y="2.2" class="st0" width="1.3" height="0.5"/>
<rect x="33.1" y="2.2" class="st0" width="1.3" height="0.5"/>
<rect x="35.1" y="2.2" class="st0" width="1.3" height="0.5"/>
<rect x="37" y="2.2" class="st0" width="1.3" height="0.5"/>
<rect x="39" y="2.2" class="st0" width="1.3" height="0.5"/>
<rect x="40.9" y="2.2" class="st0" width="1.3" height="0.5"/>
<rect x="42.9" y="2.2" class="st0" width="1.3" height="0.5"/>
<rect x="44.8" y="2.2" class="st0" width="1.3" height="0.5"/>
<rect x="46.8" y="2.2" class="st0" width="1.3" height="0.5"/>
<rect x="48.7" y="2.2" class="st0" width="1.3" height="0.5"/>
<rect x="50.7" y="2.2" class="st0" width="1.3" height="0.5"/>
<rect x="52.6" y="2.2" class="st0" width="1.3" height="0.5"/>
<rect x="54.6" y="2.2" class="st0" width="1.3" height="0.5"/>
<rect x="56.5" y="2.2" class="st0" width="1.3" height="0.5"/>
<rect x="58.5" y="2.2" class="st0" width="1.3" height="0.5"/>
<rect x="60.4" y="2.2" class="st0" width="1.3" height="0.5"/>
<rect x="62.4" y="2.2" class="st0" width="1.3" height="0.5"/>
<rect x="64.3" y="2.2" class="st0" width="1.3" height="0.5"/>
<rect x="66.3" y="2.2" class="st0" width="1.3" height="0.5"/>
<rect x="68.2" y="2.2" class="st0" width="1.3" height="0.5"/>
<rect x="70.2" y="2.2" class="st0" width="1.3" height="0.5"/>
<rect x="72.1" y="2.2" class="st0" width="1.3" height="0.5"/>
<rect x="74.1" y="2.2" class="st0" width="1.3" height="0.5"/>
<rect x="76" y="2.2" class="st0" width="1.3" height="0.5"/>
<rect x="78" y="2.2" class="st0" width="1.3" height="0.5"/>
<rect x="79.9" y="2.2" class="st0" width="1.3" height="0.5"/>
<rect x="81.9" y="2.2" class="st0" width="1.3" height="0.5"/>
<rect x="83.8" y="2.2" class="st0" width="1.3" height="0.5"/>
<rect x="85.8" y="2.2" class="st0" width="1.3" height="0.5"/>
<rect x="87.7" y="2.2" class="st0" width="1.3" height="0.5"/>
<rect x="89.7" y="2.2" class="st0" width="1.3" height="0.5"/>
<rect x="91.6" y="2.2" class="st0" width="1.3" height="0.5"/>
<rect x="93.6" y="2.2" class="st0" width="1.3" height="0.5"/>
<rect x="95.5" y="2.2" class="st0" width="1.3" height="0.5"/>
<rect x="97.5" y="2.2" class="st0" width="1.3" height="0.5"/>
<rect x="99.4" y="2.2" class="st0" width="1.3" height="0.5"/>
<rect x="101.4" y="2.2" class="st0" width="1.3" height="0.5"/>
<rect x="103.3" y="2.2" class="st0" width="1.3" height="0.5"/>
<rect x="105.3" y="2.2" class="st0" width="1.3" height="0.5"/>
<rect x="107.2" y="2.2" class="st0" width="1.3" height="0.5"/>
<rect x="109.2" y="2.2" class="st0" width="1.3" height="0.5"/>
<rect x="111.1" y="2.2" class="st0" width="1.3" height="0.5"/>
<rect x="113.1" y="2.2" class="st0" width="1.3" height="0.5"/>
<rect x="115" y="2.2" class="st0" width="1.3" height="0.5"/>
<rect x="117" y="2.2" class="st0" width="1.3" height="0.5"/>
<rect x="118.9" y="2.2" class="st0" width="1.3" height="0.5"/>
<rect x="120.9" y="2.2" class="st0" width="1.3" height="0.5"/>
<rect x="122.8" y="2.2" class="st0" width="1.3" height="0.5"/>
<rect x="124.8" y="2.2" class="st0" width="1.3" height="0.5"/>
<rect x="126.7" y="2.2" class="st0" width="1.3" height="0.5"/>
<rect x="128.7" y="2.2" class="st0" width="1.3" height="0.5"/>
<rect x="130.6" y="2.2" class="st0" width="1.3" height="0.5"/>
<rect x="132.6" y="2.2" class="st0" width="1.3" height="0.5"/>
<rect x="134.5" y="2.2" class="st0" width="1.3" height="0.5"/>
<rect x="136.4" y="2.2" class="st0" width="1.3" height="0.5"/>
<rect x="138.4" y="2.2" class="st0" width="1.3" height="0.5"/>
<rect x="140.4" y="2.2" class="st0" width="1.3" height="0.5"/>
<rect x="142.3" y="2.2" class="st0" width="1.3" height="0.5"/>
<rect x="144.2" y="2.2" class="st0" width="1.3" height="0.5"/>
<rect x="146.2" y="2.2" class="st0" width="1.3" height="0.5"/>
<rect x="148.1" y="2.2" class="st0" width="1.3" height="0.5"/>
<rect x="150.1" y="2.2" class="st0" width="1.3" height="0.5"/>
<rect x="152.1" y="2.2" class="st0" width="1.3" height="0.5"/>
<rect x="154" y="2.2" class="st0" width="1.3" height="0.5"/>
<rect x="155.9" y="2.2" class="st0" width="1.3" height="0.5"/>
<rect x="157.9" y="2.2" class="st0" width="1.3" height="0.5"/>
<rect x="159.9" y="2.2" class="st0" width="1.3" height="0.5"/>
<rect x="161.8" y="2.2" class="st0" width="1.3" height="0.5"/>
<rect x="163.7" y="2.2" class="st0" width="1.3" height="0.5"/>
<rect x="165.7" y="2.2" class="st0" width="1.3" height="0.5"/>
<rect x="167.6" y="2.2" class="st0" width="1.3" height="0.5"/>
<rect x="169.6" y="2.2" class="st0" width="1.3" height="0.5"/>
<rect x="171.5" y="2.2" class="st0" width="1.3" height="0.5"/>
<rect x="173.5" y="2.2" class="st0" width="1.3" height="0.5"/>
<rect x="175.4" y="2.2" class="st0" width="1.3" height="0.5"/>
<rect x="177.4" y="2.2" class="st0" width="1.3" height="0.5"/>
<rect x="179.3" y="2.2" class="st0" width="1.3" height="0.5"/>
<rect x="181.3" y="2.2" class="st0" width="1.3" height="0.5"/>
<rect x="183.2" y="2.2" class="st0" width="1.3" height="0.5"/>
<rect x="185.2" y="2.2" class="st0" width="1.3" height="0.5"/>
<rect x="187.1" y="2.2" class="st0" width="1.3" height="0.5"/>
<rect x="189.1" y="2.2" class="st0" width="1.3" height="0.5"/>
<rect x="191" y="2.2" class="st0" width="1.3" height="0.5"/>
<rect x="193" y="2.2" class="st0" width="1.3" height="0.5"/>
<rect x="194.9" y="2.2" class="st0" width="1.3" height="0.5"/>
<rect x="196.9" y="2.2" class="st0" width="1.3" height="0.5"/>
<rect x="198.8" y="2.2" class="st0" width="1.3" height="0.5"/>
<rect x="200.8" y="2.2" class="st0" width="1.3" height="0.5"/>
<rect x="202.7" y="2.2" class="st0" width="1.3" height="0.5"/>
<rect x="204.7" y="2.2" class="st0" width="1.3" height="0.5"/>
<rect x="206.6" y="2.2" class="st0" width="1.3" height="0.5"/>
<rect x="208.6" y="2.2" class="st0" width="1.3" height="0.5"/>
<rect x="210.5" y="2.2" class="st0" width="1.3" height="0.5"/>
<rect x="212.5" y="2.2" class="st0" width="1.3" height="0.5"/>
<rect x="214.4" y="2.2" class="st0" width="1.3" height="0.5"/>
<rect x="216.4" y="2.2" class="st0" width="1.3" height="0.5"/>
<rect x="218.3" y="2.2" class="st0" width="1.3" height="0.5"/>
<rect x="220.3" y="2.2" class="st0" width="1.3" height="0.5"/>
<rect x="222.2" y="2.2" class="st0" width="1.3" height="0.5"/>
<rect x="224.2" y="2.2" class="st0" width="1.3" height="0.5"/>
<rect x="226.1" y="2.2" class="st0" width="1.3" height="0.5"/>
<rect x="228.1" y="2.2" class="st0" width="1.3" height="0.5"/>
<rect x="230" y="2.2" class="st0" width="1.3" height="0.5"/>
<rect x="232" y="2.2" class="st0" width="1.3" height="0.5"/>
<rect x="233.9" y="2.2" class="st0" width="1.3" height="0.5"/>
<rect x="235.9" y="2.2" class="st0" width="1.3" height="0.5"/>
<rect x="237.8" y="2.2" class="st0" width="1.3" height="0.5"/>
<rect x="239.8" y="2.2" class="st0" width="1.3" height="0.5"/>
<rect x="241.7" y="2.2" class="st0" width="1.3" height="0.5"/>
<rect x="243.7" y="2.2" class="st0" width="1.3" height="0.5"/>
<rect x="245.6" y="2.2" class="st0" width="1.3" height="0.5"/>
<rect x="247.6" y="2.2" class="st0" width="1.3" height="0.5"/>
<rect x="249.5" y="2.2" class="st0" width="1.3" height="0.5"/>
<rect x="251.5" y="2.2" class="st0" width="1.3" height="0.5"/>
<rect x="253.4" y="2.2" class="st0" width="1.3" height="0.5"/>
<rect x="255.4" y="2.2" class="st0" width="1.3" height="0.5"/>
<rect x="257.3" y="2.2" class="st0" width="1.3" height="0.5"/>
<rect x="259.3" y="2.2" class="st0" width="1.3" height="0.5"/>
<rect x="261.2" y="2.2" class="st0" width="1.3" height="0.5"/>
<rect x="263.2" y="2.2" class="st0" width="1.3" height="0.5"/>
<rect x="265.1" y="2.2" class="st0" width="1.3" height="0.5"/>
<rect x="267.1" y="2.2" class="st0" width="1.3" height="0.5"/>
<rect x="269" y="2.2" class="st0" width="1.3" height="0.5"/>
<rect x="271" y="2.2" class="st0" width="1.3" height="0.5"/>
<rect x="272.9" y="2.2" class="st0" width="1.3" height="0.5"/>
<rect x="274.9" y="2.2" class="st0" width="1.3" height="0.5"/>
<rect x="276.8" y="2.2" class="st0" width="1.3" height="0.5"/>
<rect x="278.8" y="2.2" class="st0" width="1.3" height="0.5"/>
<rect x="280.7" y="2.2" class="st0" width="1.3" height="0.5"/>
<rect x="282.6" y="2.2" class="st0" width="1.3" height="0.5"/>
<rect x="284.6" y="2.2" class="st0" width="1.3" height="0.5"/>
<rect x="286.5" y="2.2" class="st0" width="1.3" height="0.5"/>
<rect x="288.5" y="2.2" class="st0" width="1.3" height="0.5"/>
<rect x="290.5" y="2.2" class="st0" width="1.3" height="0.5"/>
<rect x="292.4" y="2.2" class="st0" width="1.3" height="0.5"/>
<rect x="294.4" y="2.2" class="st0" width="1.3" height="0.5"/>
<rect x="296.3" y="2.2" class="st0" width="1.3" height="0.5"/>
<rect x="298.2" y="2.2" class="st0" width="1.3" height="0.5"/>
<rect x="300.2" y="2.2" class="st0" width="1.3" height="0.5"/>
<rect x="302.1" y="2.2" class="st0" width="1.3" height="0.5"/>
<rect x="304.1" y="2.2" class="st0" width="1.3" height="0.5"/>
<rect x="306" y="2.2" class="st0" width="1.3" height="0.5"/>
<rect x="308" y="2.2" class="st0" width="1.3" height="0.5"/>
<rect x="309.9" y="2.2" class="st0" width="1.3" height="0.5"/>
<g id="mMAicB.tif">
	<path d="M6.3,2.5L6.3,2.5l0.9,0.3l1.1,0.4l0.6,0.2l0,0C8.7,3.6,8.5,3.8,8.3,3.9c-0.2,0-0.4,0-0.5,0L7.3,3.7L6.4,3.4L5.6,3.1
		L5.1,2.9l0,0L4.3,3.2L4.1,3.3l0,0l0.1,0.1c0.3,0.5,0.1,1.2-0.4,1.5C3.7,5,3.6,5,3.5,5C3,5.2,2.5,5,2.2,4.6C1.9,4.2,2,3.5,2.4,3.1
		C2.5,3,2.6,3,2.7,3l0.4-0.2l0.6-0.2h0.1l0,0L2.9,2.2c-0.1,0-0.2-0.1-0.4-0.2C2,1.7,1.9,1.1,2.2,0.5c0-0.1,0.1-0.1,0.2-0.2
		C2.6,0.2,2.8,0.1,3,0C3.4,0,3.7,0.1,3.9,0.4c0.1,0.1,0.2,0.3,0.3,0.5c0,0.1,0,0.3,0,0.5c0,0.1-0.1,0.3-0.2,0.4l0,0h0.1L5,2H5h0.1
		l0.8-0.3L7,1.3l0.6-0.2c0.2,0,0.4,0,0.6,0c0.2,0,0.5,0.2,0.6,0.3l0.1,0.1l0,0L8.4,1.7L7.8,2L7.1,2.2L6.5,2.4L6.3,2.5L6.3,2.5
		L6.3,2.5z M3.8,4c0-0.3-0.3-0.6-0.6-0.6c-0.3,0-0.7,0.2-0.7,0.5c0,0.3,0.2,0.7,0.5,0.7c0.1,0,0.1,0,0.2,0C3.5,4.6,3.7,4.3,3.8,4
		L3.8,4z M3.8,1.1c0-0.3-0.3-0.6-0.6-0.6c-0.3,0-0.6,0.3-0.6,0.6c0,0.3,0.3,0.6,0.6,0.6l0,0C3.5,1.7,3.8,1.4,3.8,1.1z M5.3,2.5
		c0-0.1-0.1-0.2-0.2-0.2c0,0,0,0,0,0C5,2.3,4.9,2.4,4.9,2.5c0,0,0,0,0,0c0,0.1,0.1,0.2,0.2,0.2C5.2,2.8,5.3,2.7,5.3,2.5z"/>
</g>
</svg>
