<svg id="Layer_3" data-name="Layer 3" xmlns="http://www.w3.org/2000/svg" viewBox="0 0 367.78 5.08"><defs><style>.cls-1{fill:#231f20;}</style></defs><rect class="cls-1" y="2.16" width="1.31" height="0.52"/><rect class="cls-1" x="1.95" y="2.16" width="1.31" height="0.52"/><rect class="cls-1" x="3.9" y="2.16" width="1.31" height="0.52"/><rect class="cls-1" x="5.85" y="2.16" width="1.31" height="0.52"/><rect class="cls-1" x="7.8" y="2.16" width="1.31" height="0.52"/><rect class="cls-1" x="9.75" y="2.16" width="1.31" height="0.52"/><rect class="cls-1" x="11.7" y="2.16" width="1.31" height="0.52"/><rect class="cls-1" x="13.65" y="2.16" width="1.31" height="0.52"/><rect class="cls-1" x="15.59" y="2.16" width="1.31" height="0.52"/><rect class="cls-1" x="17.54" y="2.16" width="1.31" height="0.52"/><rect class="cls-1" x="19.49" y="2.16" width="1.31" height="0.52"/><rect class="cls-1" x="21.44" y="2.16" width="1.31" height="0.52"/><rect class="cls-1" x="23.39" y="2.16" width="1.31" height="0.52"/><rect class="cls-1" x="25.34" y="2.16" width="1.31" height="0.52"/><rect class="cls-1" x="27.29" y="2.16" width="1.31" height="0.52"/><rect class="cls-1" x="29.24" y="2.16" width="1.31" height="0.52"/><rect class="cls-1" x="31.19" y="2.16" width="1.31" height="0.52"/><rect class="cls-1" x="33.14" y="2.16" width="1.31" height="0.52"/><rect class="cls-1" x="35.09" y="2.16" width="1.31" height="0.52"/><rect class="cls-1" x="37.04" y="2.16" width="1.31" height="0.52"/><rect class="cls-1" x="38.99" y="2.16" width="1.31" height="0.52"/><rect class="cls-1" x="40.94" y="2.16" width="1.31" height="0.52"/><rect class="cls-1" x="42.89" y="2.16" width="1.31" height="0.52"/><rect class="cls-1" x="44.83" y="2.16" width="1.31" height="0.52"/><rect class="cls-1" x="46.78" y="2.16" width="1.31" height="0.52"/><rect class="cls-1" x="48.73" y="2.16" width="1.31" height="0.52"/><rect class="cls-1" x="50.68" y="2.16" width="1.31" height="0.52"/><rect class="cls-1" x="52.63" y="2.16" width="1.31" height="0.52"/><rect class="cls-1" x="54.58" y="2.16" width="1.31" height="0.52"/><rect class="cls-1" x="56.53" y="2.16" width="1.31" height="0.52"/><rect class="cls-1" x="58.48" y="2.16" width="1.31" height="0.52"/><rect class="cls-1" x="60.43" y="2.16" width="1.31" height="0.52"/><rect class="cls-1" x="62.38" y="2.16" width="1.31" height="0.52"/><rect class="cls-1" x="64.33" y="2.16" width="1.31" height="0.52"/><rect class="cls-1" x="66.28" y="2.16" width="1.31" height="0.52"/><rect class="cls-1" x="68.23" y="2.16" width="1.31" height="0.52"/><rect class="cls-1" x="70.18" y="2.16" width="1.31" height="0.52"/><rect class="cls-1" x="72.13" y="2.16" width="1.31" height="0.52"/><rect class="cls-1" x="74.07" y="2.16" width="1.31" height="0.52"/><rect class="cls-1" x="76.02" y="2.16" width="1.31" height="0.52"/><rect class="cls-1" x="77.97" y="2.16" width="1.31" height="0.52"/><rect class="cls-1" x="79.92" y="2.16" width="1.31" height="0.52"/><rect class="cls-1" x="81.87" y="2.16" width="1.31" height="0.52"/><rect class="cls-1" x="83.82" y="2.16" width="1.31" height="0.52"/><rect class="cls-1" x="85.77" y="2.16" width="1.31" height="0.52"/><rect class="cls-1" x="87.72" y="2.16" width="1.31" height="0.52"/><rect class="cls-1" x="89.67" y="2.16" width="1.31" height="0.52"/><rect class="cls-1" x="91.62" y="2.16" width="1.31" height="0.52"/><rect class="cls-1" x="93.57" y="2.16" width="1.31" height="0.52"/><rect class="cls-1" x="95.52" y="2.16" width="1.31" height="0.52"/><rect class="cls-1" x="97.47" y="2.16" width="1.31" height="0.52"/><rect class="cls-1" x="99.42" y="2.16" width="1.31" height="0.52"/><rect class="cls-1" x="101.37" y="2.16" width="1.31" height="0.52"/><rect class="cls-1" x="103.31" y="2.16" width="1.31" height="0.52"/><rect class="cls-1" x="105.26" y="2.16" width="1.31" height="0.52"/><rect class="cls-1" x="107.21" y="2.16" width="1.31" height="0.52"/><rect class="cls-1" x="109.16" y="2.16" width="1.31" height="0.52"/><rect class="cls-1" x="111.11" y="2.16" width="1.31" height="0.52"/><rect class="cls-1" x="113.06" y="2.16" width="1.31" height="0.52"/><rect class="cls-1" x="115.01" y="2.16" width="1.31" height="0.52"/><rect class="cls-1" x="116.96" y="2.16" width="1.31" height="0.52"/><rect class="cls-1" x="118.91" y="2.16" width="1.31" height="0.52"/><rect class="cls-1" x="120.86" y="2.16" width="1.31" height="0.52"/><rect class="cls-1" x="122.81" y="2.16" width="1.31" height="0.52"/><rect class="cls-1" x="124.76" y="2.16" width="1.31" height="0.52"/><rect class="cls-1" x="126.71" y="2.16" width="1.31" height="0.52"/><rect class="cls-1" x="128.66" y="2.16" width="1.31" height="0.52"/><rect class="cls-1" x="130.61" y="2.16" width="1.31" height="0.52"/><rect class="cls-1" x="132.55" y="2.16" width="1.31" height="0.52"/><rect class="cls-1" x="134.5" y="2.16" width="1.31" height="0.52"/><rect class="cls-1" x="136.45" y="2.16" width="1.31" height="0.52"/><rect class="cls-1" x="138.4" y="2.16" width="1.31" height="0.52"/><rect class="cls-1" x="140.35" y="2.16" width="1.31" height="0.52"/><rect class="cls-1" x="142.3" y="2.16" width="1.31" height="0.52"/><rect class="cls-1" x="144.25" y="2.16" width="1.31" height="0.52"/><rect class="cls-1" x="146.2" y="2.16" width="1.31" height="0.52"/><rect class="cls-1" x="148.15" y="2.16" width="1.31" height="0.52"/><rect class="cls-1" x="150.1" y="2.16" width="1.31" height="0.52"/><rect class="cls-1" x="152.05" y="2.16" width="1.31" height="0.52"/><rect class="cls-1" x="154" y="2.16" width="1.31" height="0.52"/><rect class="cls-1" x="155.95" y="2.16" width="1.31" height="0.52"/><rect class="cls-1" x="157.9" y="2.16" width="1.31" height="0.52"/><rect class="cls-1" x="159.85" y="2.16" width="1.31" height="0.52"/><rect class="cls-1" x="161.79" y="2.16" width="1.31" height="0.52"/><rect class="cls-1" x="163.74" y="2.16" width="1.31" height="0.52"/><rect class="cls-1" x="165.69" y="2.16" width="1.31" height="0.52"/><rect class="cls-1" x="167.64" y="2.16" width="1.31" height="0.52"/><rect class="cls-1" x="169.59" y="2.16" width="1.31" height="0.52"/><rect class="cls-1" x="171.54" y="2.16" width="1.31" height="0.52"/><rect class="cls-1" x="173.49" y="2.16" width="1.31" height="0.52"/><rect class="cls-1" x="175.44" y="2.16" width="1.31" height="0.52"/><rect class="cls-1" x="177.39" y="2.16" width="1.31" height="0.52"/><rect class="cls-1" x="179.34" y="2.16" width="1.31" height="0.52"/><rect class="cls-1" x="181.29" y="2.16" width="1.31" height="0.52"/><rect class="cls-1" x="183.24" y="2.16" width="1.31" height="0.52"/><rect class="cls-1" x="185.19" y="2.16" width="1.31" height="0.52"/><rect class="cls-1" x="187.14" y="2.16" width="1.31" height="0.52"/><rect class="cls-1" x="189.09" y="2.16" width="1.31" height="0.52"/><rect class="cls-1" x="191.03" y="2.16" width="1.31" height="0.52"/><rect class="cls-1" x="192.98" y="2.16" width="1.31" height="0.52"/><rect class="cls-1" x="194.93" y="2.16" width="1.31" height="0.52"/><rect class="cls-1" x="196.88" y="2.16" width="1.31" height="0.52"/><rect class="cls-1" x="198.83" y="2.16" width="1.31" height="0.52"/><rect class="cls-1" x="200.78" y="2.16" width="1.31" height="0.52"/><rect class="cls-1" x="202.73" y="2.16" width="1.31" height="0.52"/><rect class="cls-1" x="204.68" y="2.16" width="1.31" height="0.52"/><rect class="cls-1" x="206.63" y="2.16" width="1.31" height="0.52"/><rect class="cls-1" x="208.58" y="2.16" width="1.31" height="0.52"/><rect class="cls-1" x="210.53" y="2.16" width="1.31" height="0.52"/><rect class="cls-1" x="212.48" y="2.16" width="1.31" height="0.52"/><rect class="cls-1" x="214.43" y="2.16" width="1.31" height="0.52"/><rect class="cls-1" x="216.38" y="2.16" width="1.31" height="0.52"/><rect class="cls-1" x="218.33" y="2.16" width="1.31" height="0.52"/><rect class="cls-1" x="220.27" y="2.16" width="1.31" height="0.52"/><rect class="cls-1" x="222.22" y="2.16" width="1.31" height="0.52"/><rect class="cls-1" x="224.17" y="2.16" width="1.31" height="0.52"/><rect class="cls-1" x="226.12" y="2.16" width="1.31" height="0.52"/><rect class="cls-1" x="228.07" y="2.16" width="1.31" height="0.52"/><rect class="cls-1" x="230.02" y="2.16" width="1.31" height="0.52"/><rect class="cls-1" x="231.97" y="2.16" width="1.31" height="0.52"/><rect class="cls-1" x="233.92" y="2.16" width="1.31" height="0.52"/><rect class="cls-1" x="235.87" y="2.16" width="1.31" height="0.52"/><rect class="cls-1" x="237.82" y="2.16" width="1.31" height="0.52"/><rect class="cls-1" x="239.77" y="2.16" width="1.31" height="0.52"/><rect class="cls-1" x="241.72" y="2.16" width="1.31" height="0.52"/><rect class="cls-1" x="243.67" y="2.16" width="1.31" height="0.52"/><rect class="cls-1" x="245.62" y="2.16" width="1.31" height="0.52"/><rect class="cls-1" x="247.57" y="2.16" width="1.31" height="0.52"/><rect class="cls-1" x="249.51" y="2.16" width="1.31" height="0.52"/><rect class="cls-1" x="251.46" y="2.16" width="1.31" height="0.52"/><rect class="cls-1" x="253.41" y="2.16" width="1.31" height="0.52"/><rect class="cls-1" x="255.36" y="2.16" width="1.31" height="0.52"/><rect class="cls-1" x="257.31" y="2.16" width="1.31" height="0.52"/><rect class="cls-1" x="259.26" y="2.16" width="1.31" height="0.52"/><rect class="cls-1" x="261.21" y="2.16" width="1.31" height="0.52"/><rect class="cls-1" x="263.16" y="2.16" width="1.31" height="0.52"/><rect class="cls-1" x="265.11" y="2.16" width="1.31" height="0.52"/><rect class="cls-1" x="267.06" y="2.16" width="1.31" height="0.52"/><rect class="cls-1" x="269.01" y="2.16" width="1.31" height="0.52"/><rect class="cls-1" x="270.96" y="2.16" width="1.31" height="0.52"/><rect class="cls-1" x="272.91" y="2.16" width="1.31" height="0.52"/><rect class="cls-1" x="274.86" y="2.16" width="1.31" height="0.52"/><rect class="cls-1" x="276.81" y="2.16" width="1.31" height="0.52"/><rect class="cls-1" x="278.75" y="2.16" width="1.31" height="0.52"/><rect class="cls-1" x="280.7" y="2.16" width="1.31" height="0.52"/><rect class="cls-1" x="282.65" y="2.16" width="1.31" height="0.52"/><rect class="cls-1" x="284.6" y="2.16" width="1.31" height="0.52"/><rect class="cls-1" x="286.55" y="2.16" width="1.31" height="0.52"/><rect class="cls-1" x="288.5" y="2.16" width="1.31" height="0.52"/><rect class="cls-1" x="290.45" y="2.16" width="1.31" height="0.52"/><rect class="cls-1" x="292.4" y="2.16" width="1.31" height="0.52"/><rect class="cls-1" x="294.35" y="2.16" width="1.31" height="0.52"/><rect class="cls-1" x="296.3" y="2.16" width="1.31" height="0.52"/><rect class="cls-1" x="298.25" y="2.16" width="1.31" height="0.52"/><rect class="cls-1" x="300.2" y="2.16" width="1.31" height="0.52"/><rect class="cls-1" x="302.15" y="2.16" width="1.31" height="0.52"/><rect class="cls-1" x="304.1" y="2.16" width="1.31" height="0.52"/><rect class="cls-1" x="306.05" y="2.16" width="1.31" height="0.52"/><rect class="cls-1" x="307.99" y="2.16" width="1.31" height="0.52"/><rect class="cls-1" x="309.94" y="2.16" width="1.31" height="0.52"/><rect class="cls-1" x="311.89" y="2.16" width="1.31" height="0.52"/><rect class="cls-1" x="313.84" y="2.16" width="1.31" height="0.52"/><rect class="cls-1" x="315.79" y="2.16" width="1.31" height="0.52"/><rect class="cls-1" x="317.74" y="2.16" width="1.31" height="0.52"/><rect class="cls-1" x="319.69" y="2.16" width="1.31" height="0.52"/><rect class="cls-1" x="321.64" y="2.16" width="1.31" height="0.52"/><rect class="cls-1" x="323.59" y="2.16" width="1.31" height="0.52"/><rect class="cls-1" x="325.54" y="2.16" width="1.31" height="0.52"/><rect class="cls-1" x="327.49" y="2.16" width="1.31" height="0.52"/><rect class="cls-1" x="329.44" y="2.16" width="1.31" height="0.52"/><rect class="cls-1" x="331.39" y="2.16" width="1.31" height="0.52"/><rect class="cls-1" x="333.34" y="2.16" width="1.31" height="0.52"/><rect class="cls-1" x="335.29" y="2.16" width="1.31" height="0.52"/><rect class="cls-1" x="337.23" y="2.16" width="1.31" height="0.52"/><rect class="cls-1" x="339.18" y="2.16" width="1.31" height="0.52"/><rect class="cls-1" x="341.13" y="2.16" width="1.31" height="0.52"/><rect class="cls-1" x="343.08" y="2.16" width="1.31" height="0.52"/><rect class="cls-1" x="345.03" y="2.16" width="1.31" height="0.52"/><rect class="cls-1" x="346.98" y="2.16" width="1.31" height="0.52"/><rect class="cls-1" x="348.93" y="2.16" width="1.31" height="0.52"/><rect class="cls-1" x="350.88" y="2.16" width="1.31" height="0.52"/><rect class="cls-1" x="352.83" y="2.16" width="1.31" height="0.52"/><rect class="cls-1" x="354.78" y="2.16" width="1.31" height="0.52"/><rect class="cls-1" x="356.73" y="2.16" width="1.31" height="0.52"/><rect class="cls-1" x="358.68" y="2.16" width="1.31" height="0.52"/><rect class="cls-1" x="360.63" y="2.16" width="1.31" height="0.52"/><rect class="cls-1" x="362.58" y="2.16" width="1.31" height="0.52"/><rect class="cls-1" x="364.53" y="2.16" width="1.31" height="0.52"/><rect class="cls-1" x="366.47" y="2.16" width="1.31" height="0.52"/><g id="mMAicB.tif"><path d="M7969.84,391.52l.09,0,.79.28,1.1.4.61.22s0,0,0,0a1.23,1.23,0,0,1-.65.42,1.14,1.14,0,0,1-.55,0l-.42-.14-.89-.33-.81-.29-.5-.18h0l-.74.27-.25.09h0l.07.12A1.11,1.11,0,0,1,7967,394a1.1,1.1,0,0,1-1.23-.37,1.1,1.1,0,0,1,.44-1.69l.44-.16.65-.24.06,0h0l-.93-.34a2,2,0,0,1-.36-.16,1.1,1.1,0,0,1-.16-1.73,1,1,0,0,1,.63-.29,1,1,0,0,1,.92.34.92.92,0,0,1,.27.49,1.14,1.14,0,0,1,0,.45,1.09,1.09,0,0,1-.16.4v0l.1,0,.82.3.08,0h.06l.82-.3,1.11-.4.58-.21a1.23,1.23,0,0,1,.57,0,1.12,1.12,0,0,1,.64.34l.09.1s0,0,0,0l-.47.17-.66.24-.7.26-.6.21-.14.06h0Zm-2.56,1.43a.63.63,0,0,0-.63-.62.63.63,0,1,0,0,1.25A.63.63,0,0,0,7967.28,393Zm0-2.87a.63.63,0,1,0-.63.63A.63.63,0,0,0,7967.28,390.08Zm1.54,1.44a.21.21,0,0,0-.21-.22.21.21,0,0,0-.23.22.22.22,0,0,0,.44,0Z" transform="translate(-7963.52 -388.98)"/></g></svg>