<svg id="Layer_4" data-name="Layer 4" xmlns="http://www.w3.org/2000/svg" viewBox="0 0 5.08 175.09"><defs><style>.cls-1{fill:#231f20;}</style></defs><rect class="cls-1" x="2.28" width="0.52" height="1.3"/><rect class="cls-1" x="2.28" y="1.93" width="0.52" height="1.3"/><rect class="cls-1" x="2.28" y="3.86" width="0.52" height="1.3"/><rect class="cls-1" x="2.28" y="5.79" width="0.52" height="1.3"/><rect class="cls-1" x="2.28" y="7.72" width="0.52" height="1.3"/><rect class="cls-1" x="2.28" y="9.66" width="0.52" height="1.3"/><rect class="cls-1" x="2.28" y="11.59" width="0.52" height="1.3"/><rect class="cls-1" x="2.28" y="13.52" width="0.52" height="1.3"/><rect class="cls-1" x="2.28" y="15.45" width="0.52" height="1.3"/><rect class="cls-1" x="2.28" y="17.38" width="0.52" height="1.3"/><rect class="cls-1" x="2.28" y="19.31" width="0.52" height="1.3"/><rect class="cls-1" x="2.28" y="21.24" width="0.52" height="1.3"/><rect class="cls-1" x="2.28" y="23.17" width="0.52" height="1.3"/><rect class="cls-1" x="2.28" y="25.1" width="0.52" height="1.3"/><rect class="cls-1" x="2.28" y="27.04" width="0.52" height="1.3"/><rect class="cls-1" x="2.28" y="28.97" width="0.52" height="1.3"/><rect class="cls-1" x="2.28" y="30.9" width="0.52" height="1.3"/><rect class="cls-1" x="2.28" y="32.83" width="0.52" height="1.3"/><rect class="cls-1" x="2.28" y="34.76" width="0.52" height="1.3"/><rect class="cls-1" x="2.28" y="36.69" width="0.52" height="1.3"/><rect class="cls-1" x="2.28" y="38.62" width="0.52" height="1.3"/><rect class="cls-1" x="2.28" y="40.55" width="0.52" height="1.3"/><rect class="cls-1" x="2.28" y="42.48" width="0.52" height="1.3"/><rect class="cls-1" x="2.28" y="44.41" width="0.52" height="1.3"/><rect class="cls-1" x="2.28" y="46.35" width="0.52" height="1.3"/><rect class="cls-1" x="2.28" y="48.28" width="0.52" height="1.3"/><rect class="cls-1" x="2.28" y="50.21" width="0.52" height="1.3"/><rect class="cls-1" x="2.28" y="52.14" width="0.52" height="1.3"/><rect class="cls-1" x="2.28" y="54.07" width="0.52" height="1.3"/><rect class="cls-1" x="2.28" y="56" width="0.52" height="1.3"/><rect class="cls-1" x="2.28" y="57.93" width="0.52" height="1.3"/><rect class="cls-1" x="2.28" y="59.86" width="0.52" height="1.3"/><rect class="cls-1" x="2.28" y="61.79" width="0.52" height="1.3"/><rect class="cls-1" x="2.28" y="63.73" width="0.52" height="1.3"/><rect class="cls-1" x="2.28" y="65.66" width="0.52" height="1.3"/><rect class="cls-1" x="2.28" y="67.59" width="0.52" height="1.3"/><rect class="cls-1" x="2.28" y="69.52" width="0.52" height="1.3"/><rect class="cls-1" x="2.28" y="71.45" width="0.52" height="1.3"/><rect class="cls-1" x="2.28" y="73.38" width="0.52" height="1.3"/><rect class="cls-1" x="2.28" y="75.31" width="0.52" height="1.3"/><rect class="cls-1" x="2.28" y="77.24" width="0.52" height="1.3"/><rect class="cls-1" x="2.28" y="79.17" width="0.52" height="1.3"/><rect class="cls-1" x="2.28" y="81.11" width="0.52" height="1.3"/><rect class="cls-1" x="2.28" y="83.04" width="0.52" height="1.3"/><rect class="cls-1" x="2.28" y="84.97" width="0.52" height="1.3"/><rect class="cls-1" x="2.28" y="86.9" width="0.52" height="1.3"/><rect class="cls-1" x="2.28" y="88.83" width="0.52" height="1.3"/><rect class="cls-1" x="2.28" y="90.76" width="0.52" height="1.3"/><rect class="cls-1" x="2.28" y="92.69" width="0.52" height="1.3"/><rect class="cls-1" x="2.28" y="94.62" width="0.52" height="1.3"/><rect class="cls-1" x="2.28" y="96.55" width="0.52" height="1.3"/><rect class="cls-1" x="2.28" y="98.48" width="0.52" height="1.3"/><rect class="cls-1" x="2.28" y="100.42" width="0.52" height="1.3"/><rect class="cls-1" x="2.28" y="102.35" width="0.52" height="1.3"/><rect class="cls-1" x="2.28" y="104.28" width="0.52" height="1.3"/><rect class="cls-1" x="2.28" y="106.21" width="0.52" height="1.3"/><rect class="cls-1" x="2.28" y="108.14" width="0.52" height="1.3"/><rect class="cls-1" x="2.28" y="110.07" width="0.52" height="1.3"/><rect class="cls-1" x="2.28" y="112" width="0.52" height="1.3"/><rect class="cls-1" x="2.28" y="113.93" width="0.52" height="1.3"/><rect class="cls-1" x="2.28" y="115.86" width="0.52" height="1.3"/><rect class="cls-1" x="2.28" y="117.8" width="0.52" height="1.3"/><rect class="cls-1" x="2.28" y="119.73" width="0.52" height="1.3"/><rect class="cls-1" x="2.28" y="121.66" width="0.52" height="1.3"/><rect class="cls-1" x="2.28" y="123.59" width="0.52" height="1.3"/><rect class="cls-1" x="2.28" y="125.52" width="0.52" height="1.3"/><rect class="cls-1" x="2.28" y="127.45" width="0.52" height="1.3"/><rect class="cls-1" x="2.28" y="129.38" width="0.52" height="1.3"/><rect class="cls-1" x="2.28" y="131.31" width="0.52" height="1.3"/><rect class="cls-1" x="2.28" y="133.24" width="0.52" height="1.3"/><rect class="cls-1" x="2.28" y="135.18" width="0.52" height="1.3"/><rect class="cls-1" x="2.28" y="137.11" width="0.52" height="1.3"/><rect class="cls-1" x="2.28" y="139.04" width="0.52" height="1.3"/><rect class="cls-1" x="2.28" y="140.97" width="0.52" height="1.3"/><rect class="cls-1" x="2.28" y="142.9" width="0.52" height="1.3"/><rect class="cls-1" x="2.28" y="144.83" width="0.52" height="1.3"/><rect class="cls-1" x="2.28" y="146.76" width="0.52" height="1.3"/><rect class="cls-1" x="2.28" y="148.69" width="0.52" height="1.3"/><rect class="cls-1" x="2.28" y="150.62" width="0.52" height="1.3"/><rect class="cls-1" x="2.28" y="152.56" width="0.52" height="1.3"/><rect class="cls-1" x="2.28" y="154.49" width="0.52" height="1.3"/><rect class="cls-1" x="2.28" y="156.42" width="0.52" height="1.3"/><rect class="cls-1" x="2.28" y="158.35" width="0.52" height="1.3"/><rect class="cls-1" x="2.28" y="160.28" width="0.52" height="1.3"/><rect class="cls-1" x="2.28" y="162.21" width="0.52" height="1.3"/><rect class="cls-1" x="2.28" y="164.14" width="0.52" height="1.3"/><rect class="cls-1" x="2.28" y="166.07" width="0.52" height="1.3"/><rect class="cls-1" x="2.28" y="168" width="0.52" height="1.3"/><rect class="cls-1" x="2.28" y="169.94" width="0.52" height="1.3"/><rect class="cls-1" x="2.28" y="171.87" width="0.52" height="1.3"/><rect class="cls-1" x="2.28" y="173.8" width="0.52" height="1.3"/><g id="mMAicB.tif"><path d="M8082,406.13l0,.09c-.1.26-.19.53-.29.79s-.27.74-.4,1.1l-.22.61s0,0,0,0a1.29,1.29,0,0,1-.43-.65,1.14,1.14,0,0,1,0-.55c0-.14.1-.28.15-.42.1-.3.21-.6.32-.9s.2-.54.29-.81l.18-.49a0,0,0,0,0,0,0c-.08-.24-.17-.49-.26-.73l-.09-.25,0,0-.12.06a1,1,0,0,1-.65.11,1.1,1.1,0,0,1-.51-2,1,1,0,0,1,.74-.23,1.07,1.07,0,0,1,.94.67c.06.14.11.29.16.44l.24.65,0,.06s0,0,0,0c.11-.31.22-.62.34-.93a1.34,1.34,0,0,1,.16-.37,1.1,1.1,0,1,1,1.68,1.4,1.06,1.06,0,0,1-.5.27,1.14,1.14,0,0,1-.45,0,1.24,1.24,0,0,1-.4-.16h0l0,.1-.3.81,0,.09a.06.06,0,0,0,0,.06l.3.82c.13.37.27.74.4,1.1.07.2.15.39.21.59a1,1,0,0,1,0,.57,1.15,1.15,0,0,1-.34.64l-.1.09s0,0,0,0-.11-.32-.17-.47l-.24-.66-.25-.7c-.08-.2-.15-.4-.22-.6l-.05-.14v0Zm-1.43-2.56a.63.63,0,0,0,.62-.63.62.62,0,0,0-.62-.63.63.63,0,0,0,0,1.26Zm2.87,0a.63.63,0,1,0-.62-.63A.63.63,0,0,0,8083.46,403.57Zm-1.44,1.54a.22.22,0,0,0,.23-.22.22.22,0,0,0-.22-.22.24.24,0,0,0-.23.22A.22.22,0,0,0,8082,405.11Z" transform="translate(-8079.49 -391.39)"/></g></svg>