<?xml version="1.0" encoding="utf-8"?>
<!-- Generator: Adobe Illustrator 25.2.1, SVG Export Plug-In . SVG Version: 6.00 Build 0)  -->
<svg version="1.1" id="Layer_4" xmlns="http://www.w3.org/2000/svg" xmlns:xlink="http://www.w3.org/1999/xlink" x="0px" y="0px"
	 viewBox="0 0 5.1 175.1" style="enable-background:new 0 0 5.1 175.1;" xml:space="preserve">
<style type="text/css">
	.st0{fill:#231F20;}
</style>
<rect x="2.3" class="st0" width="0.5" height="1.3"/>
<rect x="2.3" y="1.9" class="st0" width="0.5" height="1.3"/>
<rect x="2.3" y="3.9" class="st0" width="0.5" height="1.3"/>
<rect x="2.3" y="5.8" class="st0" width="0.5" height="1.3"/>
<rect x="2.3" y="7.7" class="st0" width="0.5" height="1.3"/>
<rect x="2.3" y="9.7" class="st0" width="0.5" height="1.3"/>
<rect x="2.3" y="11.6" class="st0" width="0.5" height="1.3"/>
<rect x="2.3" y="13.5" class="st0" width="0.5" height="1.3"/>
<rect x="2.3" y="15.4" class="st0" width="0.5" height="1.3"/>
<rect x="2.3" y="17.4" class="st0" width="0.5" height="1.3"/>
<rect x="2.3" y="19.3" class="st0" width="0.5" height="1.3"/>
<rect x="2.3" y="21.2" class="st0" width="0.5" height="1.3"/>
<rect x="2.3" y="23.2" class="st0" width="0.5" height="1.3"/>
<rect x="2.3" y="25.1" class="st0" width="0.5" height="1.3"/>
<rect x="2.3" y="27" class="st0" width="0.5" height="1.3"/>
<rect x="2.3" y="29" class="st0" width="0.5" height="1.3"/>
<rect x="2.3" y="30.9" class="st0" width="0.5" height="1.3"/>
<rect x="2.3" y="32.8" class="st0" width="0.5" height="1.3"/>
<rect x="2.3" y="34.8" class="st0" width="0.5" height="1.3"/>
<rect x="2.3" y="36.7" class="st0" width="0.5" height="1.3"/>
<rect x="2.3" y="38.6" class="st0" width="0.5" height="1.3"/>
<rect x="2.3" y="40.5" class="st0" width="0.5" height="1.3"/>
<rect x="2.3" y="42.5" class="st0" width="0.5" height="1.3"/>
<rect x="2.3" y="44.4" class="st0" width="0.5" height="1.3"/>
<rect x="2.3" y="46.3" class="st0" width="0.5" height="1.3"/>
<rect x="2.3" y="48.3" class="st0" width="0.5" height="1.3"/>
<rect x="2.3" y="50.2" class="st0" width="0.5" height="1.3"/>
<rect x="2.3" y="52.1" class="st0" width="0.5" height="1.3"/>
<rect x="2.3" y="54.1" class="st0" width="0.5" height="1.3"/>
<rect x="2.3" y="56" class="st0" width="0.5" height="1.3"/>
<rect x="2.3" y="57.9" class="st0" width="0.5" height="1.3"/>
<rect x="2.3" y="59.9" class="st0" width="0.5" height="1.3"/>
<rect x="2.3" y="61.8" class="st0" width="0.5" height="1.3"/>
<rect x="2.3" y="63.7" class="st0" width="0.5" height="1.3"/>
<rect x="2.3" y="65.7" class="st0" width="0.5" height="1.3"/>
<rect x="2.3" y="67.6" class="st0" width="0.5" height="1.3"/>
<rect x="2.3" y="69.5" class="st0" width="0.5" height="1.3"/>
<rect x="2.3" y="71.4" class="st0" width="0.5" height="1.3"/>
<rect x="2.3" y="73.4" class="st0" width="0.5" height="1.3"/>
<rect x="2.3" y="75.3" class="st0" width="0.5" height="1.3"/>
<rect x="2.3" y="77.2" class="st0" width="0.5" height="1.3"/>
<rect x="2.3" y="79.2" class="st0" width="0.5" height="1.3"/>
<rect x="2.3" y="81.1" class="st0" width="0.5" height="1.3"/>
<rect x="2.3" y="83" class="st0" width="0.5" height="1.3"/>
<rect x="2.3" y="85" class="st0" width="0.5" height="1.3"/>
<rect x="2.3" y="86.9" class="st0" width="0.5" height="1.3"/>
<rect x="2.3" y="88.8" class="st0" width="0.5" height="1.3"/>
<rect x="2.3" y="90.8" class="st0" width="0.5" height="1.3"/>
<rect x="2.3" y="92.7" class="st0" width="0.5" height="1.3"/>
<rect x="2.3" y="94.6" class="st0" width="0.5" height="1.3"/>
<rect x="2.3" y="96.6" class="st0" width="0.5" height="1.3"/>
<rect x="2.3" y="98.5" class="st0" width="0.5" height="1.3"/>
<rect x="2.3" y="100.4" class="st0" width="0.5" height="1.3"/>
<rect x="2.3" y="102.3" class="st0" width="0.5" height="1.3"/>
<rect x="2.3" y="104.3" class="st0" width="0.5" height="1.3"/>
<rect x="2.3" y="106.2" class="st0" width="0.5" height="1.3"/>
<rect x="2.3" y="108.1" class="st0" width="0.5" height="1.3"/>
<rect x="2.3" y="110.1" class="st0" width="0.5" height="1.3"/>
<rect x="2.3" y="112" class="st0" width="0.5" height="1.3"/>
<rect x="2.3" y="113.9" class="st0" width="0.5" height="1.3"/>
<rect x="2.3" y="115.9" class="st0" width="0.5" height="1.3"/>
<rect x="2.3" y="117.8" class="st0" width="0.5" height="1.3"/>
<rect x="2.3" y="119.7" class="st0" width="0.5" height="1.3"/>
<rect x="2.3" y="121.7" class="st0" width="0.5" height="1.3"/>
<rect x="2.3" y="123.6" class="st0" width="0.5" height="1.3"/>
<rect x="2.3" y="125.5" class="st0" width="0.5" height="1.3"/>
<rect x="2.3" y="127.4" class="st0" width="0.5" height="1.3"/>
<rect x="2.3" y="129.4" class="st0" width="0.5" height="1.3"/>
<rect x="2.3" y="131.3" class="st0" width="0.5" height="1.3"/>
<rect x="2.3" y="133.2" class="st0" width="0.5" height="1.3"/>
<rect x="2.3" y="135.2" class="st0" width="0.5" height="1.3"/>
<rect x="2.3" y="137.1" class="st0" width="0.5" height="1.3"/>
<rect x="2.3" y="139" class="st0" width="0.5" height="1.3"/>
<g id="mMAicB.tif">
	<path d="M2.5,14.7L2.5,14.7c-0.1,0.4-0.2,0.6-0.3,0.9s-0.3,0.7-0.4,1.1l-0.2,0.6l0,0c-0.2-0.2-0.4-0.4-0.4-0.6c0-0.2,0-0.4,0-0.5
		c0-0.1,0.1-0.3,0.1-0.4c0.1-0.3,0.2-0.6,0.3-0.9s0.2-0.5,0.3-0.8l0.2-0.5l0,0C2,13.3,1.9,13,1.8,12.8l-0.1-0.2l0,0l-0.1,0.1
		c-0.2,0.1-0.4,0.1-0.6,0.1c-0.6-0.1-1-0.6-1-1.2c0-0.3,0.2-0.6,0.5-0.8c0.2-0.2,0.5-0.3,0.7-0.2c0.4,0,0.8,0.3,0.9,0.7
		c0.1,0.1,0.1,0.3,0.2,0.4l0.2,0.6v0.1l0,0c0.1-0.3,0.2-0.6,0.3-0.9c0-0.1,0.1-0.3,0.2-0.4c0.3-0.5,1-0.6,1.5-0.3
		c0.5,0.3,0.6,1,0.3,1.5c0,0.1-0.1,0.1-0.2,0.2c-0.1,0.1-0.3,0.2-0.5,0.3c-0.1,0-0.3,0-0.5,0c-0.1,0-0.3-0.1-0.4-0.2l0,0v0.1
		l-0.3,0.8v0.1c0,0,0,0,0,0.1l0.3,0.8c0.1,0.4,0.3,0.7,0.4,1.1c0.1,0.2,0.1,0.4,0.2,0.6c0.1,0.2,0.1,0.4,0,0.6
		c0,0.2-0.2,0.5-0.3,0.6l-0.1,0.1l0,0c0,0-0.1-0.3-0.2-0.5l-0.2-0.7l-0.2-0.7c-0.1-0.2-0.1-0.4-0.2-0.6l0-0.1l0,0L2.5,14.7z
		 M1.1,12.2c0.3,0,0.6-0.3,0.6-0.6c0-0.3-0.3-0.6-0.6-0.6c0,0,0,0,0,0c-0.3,0-0.6,0.3-0.6,0.6S0.7,12.2,1.1,12.2z M3.9,12.2
		c0.3,0,0.6-0.3,0.6-0.6c0-0.3-0.3-0.6-0.6-0.6c-0.3,0-0.6,0.3-0.6,0.6c0,0,0,0,0,0C3.3,11.9,3.6,12.2,3.9,12.2
		C4,12.2,4,12.2,3.9,12.2L3.9,12.2z M2.5,13.7c0.1,0,0.2-0.1,0.2-0.2c0,0,0,0,0,0c0-0.1-0.1-0.2-0.2-0.2l0,0c-0.1,0-0.2,0.1-0.2,0.2
		C2.3,13.6,2.4,13.7,2.5,13.7L2.5,13.7L2.5,13.7z"/>
</g>
</svg>
