<svg id="Layer_1" data-name="Layer 1" xmlns="http://www.w3.org/2000/svg" viewBox="0 0 50 50"><defs><style>.cls-1{fill:#fff;}</style></defs><path class="cls-1" d="M27.91,4.56H19.13a3.57,3.57,0,0,0-3.58,3.57V35.62a3.57,3.57,0,0,0,3.58,3.57H35.57a3.57,3.57,0,0,0,3.58-3.57V15.8a3.58,3.58,0,0,0-1-2.53L30.44,5.61A3.54,3.54,0,0,0,27.91,4.56Z"/><path d="M27.91,4.18h-5c-1.59,0-3.66-.32-5.19.27-3.16,1.22-2.53,5-2.53,7.66,0,7.72-.09,15.46,0,23.19a4.09,4.09,0,0,0,2.69,4.06,12.59,12.59,0,0,0,3.78.21H34.29c1.55,0,3,0,4.19-1.28s1.05-2.44,1.05-3.83V16.66a5,5,0,0,0-1.24-3.74c-2.43-2.54-4.94-5-7.48-7.48a4.38,4.38,0,0,0-2.9-1.26c-.48,0-.48.73,0,.75,1.88.11,3.09,1.77,4.33,3l4.34,4.34c1.08,1.08,2.13,2,2.2,3.65,0,1.13,0,2.27,0,3.4V31.69c0,1.23,0,2.47,0,3.7a3.36,3.36,0,0,1-3.51,3.43c-3.57.07-7.16,0-10.73,0h-4.8c-2,0-3.73-1-3.81-3.25-.25-6.75,0-13.56,0-20.31,0-2.37-.1-4.75,0-7.11a3.27,3.27,0,0,1,3.2-3.22c.47,0,.95,0,1.42,0h7.36A.38.38,0,0,0,27.91,4.18Z"/><path class="cls-1" d="M24.63,6.07H15.85a3.58,3.58,0,0,0-3.58,3.58V37.13a3.58,3.58,0,0,0,3.58,3.58H32.29a3.58,3.58,0,0,0,3.58-3.58V17.31a3.58,3.58,0,0,0-1-2.53L27.16,7.12A3.58,3.58,0,0,0,24.63,6.07Z"/><path d="M24.63,5.7h-5C18,5.7,16,5.37,14.43,6c-3.16,1.22-2.53,5-2.53,7.66,0,7.73-.09,15.46,0,23.19a4.09,4.09,0,0,0,2.69,4.06,12.27,12.27,0,0,0,3.78.21H31c1.55,0,3,0,4.19-1.27s1-2.44,1-3.84V18.17A5,5,0,0,0,35,14.43c-2.43-2.54-4.95-5-7.48-7.47a4.28,4.28,0,0,0-2.9-1.26c-.48,0-.48.72,0,.75,1.88.1,3.09,1.76,4.33,3l4.33,4.33c1.09,1.09,2.14,2,2.2,3.65,0,1.14,0,2.28,0,3.41V33.2c0,1.23,0,2.47,0,3.7A3.34,3.34,0,0,1,32,40.33c-3.58.08-7.16,0-10.73,0h-4.8c-2,0-3.73-1-3.81-3.25-.25-6.75,0-13.55,0-20.31,0-2.36-.1-4.75,0-7.11a3.26,3.26,0,0,1,3.2-3.21c.47,0,1,0,1.42,0h7.36A.38.38,0,0,0,24.63,5.7Z"/><path class="cls-1" d="M20.24,7.74H11.45a3.57,3.57,0,0,0-3.57,3.57V38.8a3.57,3.57,0,0,0,3.57,3.57H27.9a3.57,3.57,0,0,0,3.58-3.57V19a3.58,3.58,0,0,0-1.05-2.53L22.77,8.79A3.54,3.54,0,0,0,20.24,7.74Z"/><path d="M20.24,7.36h-5c-1.59,0-3.67-.32-5.19.27-3.16,1.22-2.54,5-2.54,7.66,0,7.72-.08,15.46,0,23.19a4.08,4.08,0,0,0,2.7,4.06,12.57,12.57,0,0,0,3.78.21H26.61c1.55,0,3,0,4.2-1.28s1-2.44,1-3.83V19.84a4.91,4.91,0,0,0-1.24-3.74c-2.42-2.54-4.94-5-7.47-7.48a4.38,4.38,0,0,0-2.9-1.26c-.48,0-.48.73,0,.75,1.88.11,3.09,1.77,4.33,3l4.33,4.34c1.08,1.08,2.14,2,2.2,3.65,0,1.13,0,2.27,0,3.4V34.87c0,1.23,0,2.47,0,3.7A3.34,3.34,0,0,1,27.6,42c-3.58.07-7.16,0-10.74,0H12.07c-2,0-3.73-1-3.82-3.25-.25-6.75,0-13.56,0-20.31,0-2.36-.09-4.75,0-7.11a3.29,3.29,0,0,1,3.2-3.22c.48,0,1,0,1.43,0h7.36A.38.38,0,0,0,20.24,7.36Z"/></svg>