<svg id="Layer_1" data-name="Layer 1" xmlns="http://www.w3.org/2000/svg" xmlns:xlink="http://www.w3.org/1999/xlink" viewBox="0 0 160 90"><defs><style>.cls-1{filter:url(#luminosity-noclip);}.cls-2{fill:none;}.cls-3{mask:url(#mask);}.cls-4{fill:#242424;}.cls-5{fill:#2196f3;}</style><filter id="luminosity-noclip" x="29.56" y="13.99" width="55.39" height="54.69" filterUnits="userSpaceOnUse" color-interpolation-filters="sRGB"><feFlood flood-color="#fff" result="bg"/><feBlend in="SourceGraphic" in2="bg"/></filter><mask id="mask" x="29.56" y="13.99" width="55.39" height="54.69" maskUnits="userSpaceOnUse"><ellipse class="cls-1" cx="72.43" cy="53.23" rx="12.52" ry="15.45"/></mask></defs><rect class="cls-2" x="37.07" y="21.5" width="35.03" height="35.03"/><g class="cls-3"><path class="cls-4" d="M72.1,14H29.56V64H79.61V14Zm0,42.54h-35v-35h35Z"/><rect class="cls-4" x="43.86" y="28.29" width="21.45" height="21.45"/></g><path class="cls-5" d="M90.43,61.58a14.62,14.62,0,0,1-3.08,5.66l4.55,4.27L87.59,76,82.84,71.5a20.15,20.15,0,0,1-3.76,1.86,20.31,20.31,0,0,1-6.37.89,18.2,18.2,0,0,1-12.78-4.62q-6.12-5.55-6.12-16.31t6.27-16.39a18.52,18.52,0,0,1,12.75-4.54,18.3,18.3,0,0,1,12.88,4.8q6,5.56,6,15.54A26.22,26.22,0,0,1,90.43,61.58Zm-15,5.32a13.51,13.51,0,0,0,1.85-.68,12.48,12.48,0,0,0,2.26-1.82,13.33,13.33,0,0,0,2-2.63c.24-.48.52-1.09.8-1.81a13.47,13.47,0,0,0,.51-1.57,19.19,19.19,0,0,0,.59-5.07q0-6.66-2.72-10.29a9.33,9.33,0,0,0-8-3.64,9.72,9.72,0,0,0-7.84,3.49Q62,46.38,62,53.32,62,61.45,66.2,65a9.78,9.78,0,0,0,6.5,2.28A10.77,10.77,0,0,0,75.44,66.9Z"/><path class="cls-5" d="M123.37,34.62a9.81,9.81,0,0,1,3.7,2.76,12.21,12.21,0,0,1,2,3.33,11.06,11.06,0,0,1,.73,4.16,11.83,11.83,0,0,1-1.42,5.54,8,8,0,0,1-4.7,3.85,7.35,7.35,0,0,1,3.88,3.12,13.07,13.07,0,0,1,1.14,6.19v2.66a19.48,19.48,0,0,0,.22,3.67,3.34,3.34,0,0,0,1.53,2.26v1h-9.13c-.25-.88-.43-1.58-.53-2.12a19.23,19.23,0,0,1-.35-3.41L120.37,64c0-2.53-.47-4.21-1.3-5.05s-2.41-1.26-4.71-1.26h-8.07V73.15H98.21V33.6h18.92A17.09,17.09,0,0,1,123.37,34.62Zm-17.08,5.85V51.09h8.89a9.5,9.5,0,0,0,4-.64c1.56-.75,2.34-2.24,2.34-4.45,0-2.4-.75-4-2.27-4.83a8.12,8.12,0,0,0-3.82-.7Z"/></svg>