<svg id="Layer_1" data-name="Layer 1" xmlns="http://www.w3.org/2000/svg" xmlns:xlink="http://www.w3.org/1999/xlink" viewBox="0 0 320 90"><defs><style>.cls-1{filter:url(#luminosity-noclip);}.cls-2{fill:none;}.cls-3{mask:url(#mask);}.cls-4{fill:#242424;}.cls-5{fill:#2196f3;}.cls-6{font-size:42.73px;font-family:Helvetica-Bold, Helvetica;font-weight:700;}</style><filter id="luminosity-noclip" x="16.2" y="11.13" width="55.39" height="54.69" filterUnits="userSpaceOnUse" color-interpolation-filters="sRGB"><feFlood flood-color="#fff" result="bg"/><feBlend in="SourceGraphic" in2="bg"/></filter><mask id="mask" x="16.2" y="11.13" width="55.39" height="54.69" maskUnits="userSpaceOnUse"><ellipse class="cls-1" cx="59.07" cy="50.37" rx="12.52" ry="15.45"/></mask></defs><rect class="cls-2" x="23.71" y="18.64" width="35.03" height="35.03"/><g class="cls-3"><path class="cls-4" d="M58.73,11.13H16.2v50h50v-50Zm0,42.54h-35v-35h35Z"/><rect class="cls-4" x="30.5" y="25.43" width="21.45" height="21.45"/></g><path class="cls-5" d="M77.07,58.72A14.76,14.76,0,0,1,74,64.38l4.54,4.27-4.31,4.5-4.75-4.51a19.85,19.85,0,0,1-3.76,1.86,20.2,20.2,0,0,1-6.36.89,18.22,18.22,0,0,1-12.79-4.62q-6.12-5.55-6.12-16.31t6.28-16.39a18.5,18.5,0,0,1,12.74-4.54,18.28,18.28,0,0,1,12.88,4.8q6,5.56,6,15.54A26.54,26.54,0,0,1,77.07,58.72ZM62.07,64a13.51,13.51,0,0,0,1.85-.68,12.72,12.72,0,0,0,4.27-4.45c.24-.48.51-1.09.79-1.81a15.93,15.93,0,0,0,.52-1.57,19.61,19.61,0,0,0,.59-5.07q0-6.66-2.72-10.29a9.35,9.35,0,0,0-8-3.64A9.7,9.7,0,0,0,51.58,40q-2.92,3.49-2.93,10.44,0,8.13,4.19,11.64a9.71,9.71,0,0,0,6.49,2.28A10.77,10.77,0,0,0,62.07,64Z"/><path class="cls-5" d="M110,31.76a9.82,9.82,0,0,1,3.71,2.76,12.18,12.18,0,0,1,2,3.33,11.06,11.06,0,0,1,.74,4.16A12,12,0,0,1,115,47.55a8,8,0,0,1-4.7,3.85,7.39,7.39,0,0,1,3.88,3.12,13.07,13.07,0,0,1,1.14,6.19v2.66a19.48,19.48,0,0,0,.22,3.67,3.29,3.29,0,0,0,1.52,2.26v1H108c-.25-.88-.43-1.58-.54-2.12a20.21,20.21,0,0,1-.35-3.41l0-3.67c0-2.53-.47-4.21-1.31-5.05s-2.41-1.26-4.71-1.26H92.92V70.29H84.85V30.74h18.91A17,17,0,0,1,110,31.76ZM92.92,37.61V48.23h8.9a9.45,9.45,0,0,0,4-.64c1.56-.75,2.35-2.24,2.35-4.46q0-3.59-2.27-4.82a8.14,8.14,0,0,0-3.82-.7Z"/><text class="cls-6" transform="translate(120.27 68.21)">rechnung</text></svg>