<svg id="Layer_1" data-name="Layer 1" xmlns="http://www.w3.org/2000/svg" viewBox="0 0 50 50"><defs><style>.cls-1{fill:#fff;}</style></defs><path class="cls-1" d="M23.69,33.56a2.25,2.25,0,0,1,2.62,0l10.53,7.5h0V11.2A2.26,2.26,0,0,0,34.6,8.94H15.4a2.26,2.26,0,0,0-2.26,2.26V41.06h0Z"/><path d="M23.88,33.88c1.4-.84,2.44.14,3.53.92l3.88,2.76,3.87,2.76c.39.27,1.18,1.12,1.7,1.12a.39.39,0,0,0,.38-.38V13.41c0-2.06.18-4.68-2.66-4.85-2.68-.16-5.41,0-8.1,0H16.17a3.16,3.16,0,0,0-3,1.22A3.92,3.92,0,0,0,12.76,12v29a.39.39,0,0,0,.38.38c.47,0,1.14-.72,1.49-1l3.68-2.62,5.57-4c.39-.27,0-.93-.38-.64L18.23,37l-3.54,2.52-1.25.89c-.21.15-.6.29-.3.29l.37.37V14.47c0-1.79-.59-5,2-5.16s5.35,0,8,0H33.6c1.34,0,2.76.15,2.89,1.9,0,.56,0,1.13,0,1.68V41.06l.37-.37c.31,0,.1.07,0-.08a2,2,0,0,0-.45-.31l-1.5-1.08-4.35-3.09-3.49-2.49c-1.13-.8-2.27-1.19-3.57-.4A.37.37,0,0,0,23.88,33.88Z"/></svg>